<?xml version="1.0" encoding="UTF-8" standalone="no"?>
<!-- Created with Inkscape (http://www.inkscape.org/) -->

<svg
   xmlns:dc="http://purl.org/dc/elements/1.1/"
   xmlns:cc="http://creativecommons.org/ns#"
   xmlns:rdf="http://www.w3.org/1999/02/22-rdf-syntax-ns#"
   xmlns:svg="http://www.w3.org/2000/svg"
   xmlns="http://www.w3.org/2000/svg"
   xmlns:sodipodi="http://sodipodi.sourceforge.net/DTD/sodipodi-0.dtd"
   xmlns:inkscape="http://www.inkscape.org/namespaces/inkscape"
   width="1400"
   height="700"
   viewBox="0 0 370.41666 185.20834"
   version="1.1"
   id="svg8"
   inkscape:version="0.92.4 (5da689c313, 2019-01-14)"
   sodipodi:docname="heroBg.svg">
  <defs
     id="defs2" />
  <sodipodi:namedview
     id="base"
     pagecolor="#ffffff"
     bordercolor="#666666"
     borderopacity="1.0"
     inkscape:pageopacity="0.0"
     inkscape:pageshadow="2"
     inkscape:zoom="1.979899"
     inkscape:cx="507.44032"
     inkscape:cy="347.4914"
     inkscape:document-units="mm"
     inkscape:current-layer="layer1"
     showgrid="false"
     units="px"
     inkscape:pagecheckerboard="true"
     inkscape:window-width="3840"
     inkscape:window-height="2093"
     inkscape:window-x="-9"
     inkscape:window-y="-9"
     inkscape:window-maximized="1" />
  <metadata
     id="metadata5">
    <rdf:RDF>
      <cc:Work
         rdf:about="">
        <dc:format>image/svg+xml</dc:format>
        <dc:type
           rdf:resource="http://purl.org/dc/dcmitype/StillImage" />
        <dc:title />
      </cc:Work>
    </rdf:RDF>
  </metadata>
  <g
     inkscape:label="Layer 1"
     inkscape:groupmode="layer"
     id="layer1"
     transform="translate(0,-111.79164)">
    <path
       id="path10"
       d="m 258.36147,243.45721 0.25035,1.3591 c 0.22062,1.1977 -2.58234,2.724 -6.25897,3.40126 -3.67663,0.67725 -6.83949,0.24988 -7.06011,-0.94782 l -0.25035,-1.35909 c -0.22062,-1.1977 2.58235,-2.72401 6.25898,-3.40126 3.67663,-0.67726 6.83947,-0.24988 7.0601,0.94781 z m 0.56329,3.05796 0.56328,3.05794 c 0.22063,1.19771 -2.58234,2.72402 -6.25897,3.40128 -3.67662,0.67725 -6.83947,0.24987 -7.0601,-0.94784 l -0.56329,-3.05794 c 1.61227,0.72179 4.31548,0.69812 6.92554,0.21733 2.61006,-0.48078 5.14425,-1.42187 6.39354,-2.67077 z m 0.87622,4.75681 0.56329,3.05795 c 0.22063,1.1977 -2.58234,2.72401 -6.25897,3.40126 -3.67663,0.67726 -6.83948,0.24989 -7.0601,-0.94781 l -0.56329,-3.05796 c 1.61227,0.72179 4.31548,0.69811 6.92554,0.21733 2.61006,-0.48079 5.14425,-1.42187 6.39353,-2.67077 z"
       inkscape:connector-curvature="0"
       style="stroke-width:0.03023026;opacity:0.432" />
    <path
       id="path21"
       d="m 328.03182,291.59897 h -13.92919 c -0.0425,1.13808 -0.84508,1.83839 -1.88089,1.83839 h -3.49294 c -1.07372,0 -1.89697,-1.00365 -1.88261,-1.83839 h -13.74363 c -0.50556,0 -0.91919,0.41364 -0.91919,0.91919 v 0.9192 c 0,2.02221 1.65454,3.67676 3.67676,3.67676 h 29.41412 c 2.02221,0 3.67676,-1.65455 3.67676,-3.67676 v -0.9192 c 0,-0.50555 -0.41364,-0.91919 -0.91919,-0.91919 z m -2.75757,-21.14139 c 0,-1.51667 -1.24091,-2.75758 -2.75758,-2.75758 h -23.89896 c -1.51667,0 -2.75758,1.24091 -2.75758,2.75758 v 19.30301 h 29.41412 z m -3.67677,15.62624 h -22.06059 v -14.70705 h 22.06059 z"
       inkscape:connector-curvature="0"
       style="stroke-width:0.05744944;opacity:0.364" />
    <path
       id="path43"
       d="m 171.6611,273.50968 -18.20953,1.02816 c -1.00569,0.0568 -1.77491,0.91808 -1.71813,1.92377 l 0.6169,10.92572 c 0.0568,1.0057 0.91806,1.77491 1.92376,1.71813 l 18.20953,-1.02816 c 1.00569,-0.0568 1.77491,-0.91807 1.71813,-1.92376 l -0.6169,-10.92572 c -0.0568,-1.0057 -0.91807,-1.77492 -1.92376,-1.71814 z m 1.0232,12.72954 c 0.009,0.16734 -0.11902,0.31118 -0.28635,0.32063 l -18.20953,1.02815 c -0.16734,0.009 -0.31118,-0.11902 -0.32062,-0.28635 l -0.6169,-10.92572 c -0.009,-0.16735 0.11901,-0.31118 0.28635,-0.32063 l 18.20953,-1.02816 c 0.16734,-0.009 0.31118,0.11902 0.32063,0.28636 z m -14.16322,-4.14778 -0.06,-1.06222 c -0.0142,-0.25141 -0.22955,-0.44373 -0.48095,-0.42954 l -1.06222,0.06 c -0.2514,0.0142 -0.44373,0.22954 -0.42954,0.48095 l 0.06,1.06222 c 0.0142,0.25141 0.22954,0.44373 0.48094,0.42953 l 1.06222,-0.06 c 0.2514,-0.0142 0.44374,-0.22954 0.42954,-0.48095 z m 3.64191,-0.20563 -0.06,-1.06223 c -0.0142,-0.2514 -0.22953,-0.44372 -0.48093,-0.42953 l -1.06222,0.06 c -0.25141,0.0142 -0.44374,0.22953 -0.42954,0.48094 l 0.06,1.06222 c 0.0142,0.25141 0.22954,0.44373 0.48095,0.42954 l 1.06223,-0.06 c 0.2514,-0.0142 0.44372,-0.22953 0.42953,-0.48094 z m 3.64189,-0.20563 -0.06,-1.06222 c -0.0142,-0.25141 -0.22954,-0.44373 -0.48095,-0.42954 l -1.06222,0.06 c -0.2514,0.0142 -0.44372,0.22954 -0.42953,0.48095 l 0.06,1.06222 c 0.0142,0.2514 0.22953,0.44373 0.48094,0.42953 l 1.06222,-0.06 c 0.25141,-0.0142 0.44372,-0.22954 0.42953,-0.48093 z m 3.64191,-0.20564 -0.06,-1.06222 c -0.0142,-0.2514 -0.22954,-0.44372 -0.48095,-0.42953 l -1.06221,0.06 c -0.25141,0.0142 -0.44373,0.22954 -0.42954,0.48094 l 0.06,1.06222 c 0.0142,0.25141 0.22953,0.44373 0.48094,0.42953 l 1.06221,-0.06 c 0.25141,-0.0142 0.44374,-0.22953 0.42954,-0.48094 z m -12.57102,3.83051 -0.06,-1.06222 c -0.0142,-0.25141 -0.22954,-0.44373 -0.48094,-0.42954 l -1.06223,0.06 c -0.25141,0.0142 -0.44373,0.22953 -0.42953,0.48094 l 0.06,1.06222 c 0.0142,0.2514 0.22953,0.44373 0.48094,0.42953 l 1.06222,-0.06 c 0.2514,-0.0142 0.44373,-0.22954 0.42953,-0.48094 z m 14.56762,-0.82253 -0.06,-1.06222 c -0.0142,-0.2514 -0.22954,-0.44373 -0.48094,-0.42953 l -1.06223,0.06 c -0.2514,0.0142 -0.44373,0.22954 -0.42953,0.48094 l 0.06,1.06222 c 0.0142,0.25141 0.22954,0.44373 0.48094,0.42954 l 1.06223,-0.06 c 0.2514,-0.0142 0.44373,-0.22955 0.42953,-0.48095 z m -14.91891,-5.39906 -0.06,-1.06223 c -0.0142,-0.25141 -0.22954,-0.44372 -0.48094,-0.42953 l -1.06223,0.06 c -0.2514,0.0142 -0.44373,0.22954 -0.42952,0.48094 l 0.06,1.06222 c 0.0142,0.25141 0.22953,0.44374 0.48093,0.42955 l 1.06223,-0.06 c 0.2514,-0.0142 0.44373,-0.22954 0.42953,-0.48095 z m 3.64191,-0.20563 -0.06,-1.06223 c -0.0142,-0.2514 -0.22954,-0.44372 -0.48094,-0.42952 l -1.06222,0.06 c -0.25141,0.0142 -0.44374,0.22953 -0.42955,0.48094 l 0.06,1.06223 c 0.0142,0.2514 0.22954,0.44373 0.48095,0.42953 l 1.06222,-0.06 c 0.2514,-0.0142 0.44373,-0.22954 0.42953,-0.48094 z m 3.6419,-0.20564 -0.06,-1.06222 c -0.0142,-0.25141 -0.22953,-0.44372 -0.48093,-0.42953 l -1.06222,0.06 c -0.25141,0.0142 -0.44373,0.22953 -0.42953,0.48094 l 0.06,1.06222 c 0.0142,0.25141 0.22953,0.44374 0.48094,0.42954 l 1.06222,-0.06 c 0.2514,-0.0142 0.44373,-0.22955 0.42953,-0.48096 z m 3.64191,-0.20562 -0.06,-1.06223 c -0.0142,-0.2514 -0.22953,-0.44372 -0.48094,-0.42953 l -1.06222,0.06 c -0.2514,0.0142 -0.44373,0.22954 -0.42953,0.48094 l 0.06,1.06223 c 0.0142,0.2514 0.22954,0.44373 0.48094,0.42953 l 1.06222,-0.06 c 0.25141,-0.0142 0.44373,-0.22954 0.42954,-0.48094 z m 3.64191,-0.20564 -0.06,-1.06222 c -0.0142,-0.25141 -0.22954,-0.44373 -0.48094,-0.42954 l -1.06223,0.06 c -0.2514,0.0142 -0.44372,0.22953 -0.42953,0.48094 l 0.06,1.06222 c 0.0142,0.25141 0.22954,0.44374 0.48095,0.42954 l 1.06222,-0.06 c 0.2514,-0.0142 0.44373,-0.22954 0.42954,-0.48095 z m -3.37935,6.20389 -0.0343,-0.60699 c -0.0142,-0.2514 -0.22954,-0.44373 -0.48094,-0.42953 l -8.19429,0.46267 c -0.2514,0.0142 -0.44373,0.22955 -0.42954,0.48094 l 0.0343,0.60699 c 0.0142,0.2514 0.22954,0.44372 0.48095,0.42953 l 8.19428,-0.46267 c 0.2514,-0.0142 0.44373,-0.22954 0.42953,-0.48094 z"
       inkscape:connector-curvature="0"
       style="stroke-width:0.03799693;opacity:0.438" />
    <path
       id="path54"
       d="M 86.763585,253.26151 H 45.401196 c -2.283548,0 -4.136239,1.85269 -4.136239,4.13624 v 27.57492 c 0,2.28355 1.852691,4.13624 4.136239,4.13624 h 16.544956 l -1.378746,4.13624 h -6.204359 c -1.146083,0 -2.068119,0.92204 -2.068119,2.06812 0,1.14608 0.922036,2.06812 2.068119,2.06812 h 23.438686 c 1.146084,0 2.06812,-0.92204 2.06812,-2.06812 0,-1.14608 -0.922036,-2.06812 -2.06812,-2.06812 h -6.204357 l -1.378746,-4.13624 h 16.544955 c 2.283549,0 4.136239,-1.85269 4.136239,-4.13624 v -27.57492 c 0,-2.28355 -1.85269,-4.13624 -4.136239,-4.13624 z M 85.38484,283.59392 H 46.779942 V 258.77649 H 85.38484 Z"
       inkscape:connector-curvature="0"
       style="stroke-width:0.08617164;opacity:0.185" />
    <path
       id="path76"
       d="m 331.96167,164.26861 7.38815,-0.74821 c 2.03944,-0.20655 3.52651,-2.02875 3.31997,-4.0682 l 1.23136,-0.1247 c 2.71669,-0.27512 4.70176,-2.70754 4.42663,-5.42424 -0.27513,-2.71669 -2.70756,-4.70175 -5.42424,-4.42662 l -15.08415,1.5276 c -0.5118,0.0518 -0.88183,0.50526 -0.83,1.01704 l 0.90409,8.92735 c 0.20653,2.03944 2.02875,3.52652 4.06819,3.31998 z m 11.19127,-12.32925 c 1.35834,-0.13758 2.57456,0.85496 2.71213,2.21331 0.13756,1.35834 -0.85498,2.57455 -2.21332,2.71211 l -1.23137,0.12472 -0.4988,-4.92544 z m 3.33192,14.59042 -19.67866,1.99289 c -1.83165,0.18549 -2.59668,-2.225 -1.63469,-2.32242 l 22.44537,-2.27308 c 0.96201,-0.0974 0.70347,2.41673 -1.13202,2.60261 z"
       inkscape:connector-curvature="0"
       style="stroke-width:0.03867679;opacity:0.386" />
    <path
       id="path87"
       d="M 21.635401,201.76548 3.4248377,199.73 c -0.718384,-0.0803 -1.235661,-0.72776 -1.155365,-1.44614 l 0.290782,-2.60151 c 0.0803,-0.71838 0.727763,-1.23566 1.446146,-1.15536 l 18.2105643,2.03547 c 0.718381,0.0803 1.23566,0.72776 1.155363,1.44615 l -0.290782,2.60151 c -0.0803,0.71837 -0.727764,1.23565 -1.446145,1.15536 z m -1.551308,-3.79516 c -0.538796,-0.0602 -1.024385,0.32772 -1.084609,0.86652 -0.06022,0.53879 0.327727,1.02438 0.866523,1.08461 0.538797,0.0602 1.024387,-0.32773 1.08461,-0.86653 0.06022,-0.53879 -0.327727,-1.02438 -0.866524,-1.0846 z m -2.601508,-0.29079 c -0.538797,-0.0602 -1.024386,0.32773 -1.084609,0.86653 -0.06022,0.53879 0.327726,1.02438 0.866523,1.0846 0.538796,0.0602 1.024385,-0.32772 1.084608,-0.86652 0.06022,-0.53879 -0.327726,-1.02438 -0.866522,-1.08461 z m 3.425861,10.58973 -18.2105643,-2.03548 c -0.718383,-0.0803 -1.23566,-0.72776 -1.155363,-1.44615 l 0.290782,-2.60151 c 0.0803,-0.71837 0.727762,-1.23565 1.446145,-1.15536 l 18.2105633,2.03548 c 0.718382,0.0803 1.235661,0.72776 1.155365,1.44614 l -0.290782,2.60151 c -0.0803,0.71838 -0.727765,1.23566 -1.446146,1.15537 z m -1.551307,-3.79517 c -0.538796,-0.0602 -1.024385,0.32772 -1.08461,0.86653 -0.06022,0.53879 0.327727,1.02438 0.866523,1.0846 0.538797,0.0602 1.024386,-0.32772 1.08461,-0.86652 0.06022,-0.5388 -0.327726,-1.02439 -0.866523,-1.08461 z m -2.601508,-0.29079 c -0.538797,-0.0602 -1.024386,0.32773 -1.08461,0.86653 -0.06022,0.5388 0.327726,1.02439 0.866522,1.08461 0.538797,0.0602 1.024386,-0.32772 1.084609,-0.86652 0.06023,-0.5388 -0.327725,-1.02439 -0.866521,-1.08462 z m 3.425861,10.58972 -18.2105643,-2.03547 c -0.718383,-0.0803 -1.23565997,-0.72776 -1.15536297,-1.44615 l 0.29078097,-2.6015 c 0.0803,-0.71838 0.727763,-1.23566 1.446146,-1.15537 l 18.2105633,2.03548 c 0.718382,0.0803 1.235661,0.72776 1.155364,1.44615 l -0.290781,2.6015 c -0.0803,0.71838 -0.727765,1.23566 -1.446146,1.15536 z m -1.551308,-3.79516 c -0.538796,-0.0602 -1.024385,0.32773 -1.084609,0.86653 -0.06022,0.53879 0.327727,1.02438 0.866523,1.0846 0.538797,0.0602 1.024386,-0.32772 1.08461,-0.86652 0.06022,-0.53879 -0.327727,-1.02438 -0.866524,-1.08461 z m -2.601508,-0.29078 c -0.538797,-0.0602 -1.024386,0.32773 -1.084609,0.86652 -0.06022,0.5388 0.327726,1.02439 0.866522,1.08461 0.538797,0.0602 1.024386,-0.32773 1.084609,-0.86652 0.06022,-0.53879 -0.327726,-1.02438 -0.866522,-1.08461 z"
       inkscape:connector-curvature="0"
       style="opacity:0.091;fill:#ffffff;fill-opacity:1;stroke:#000000;stroke-width:0.04090171;stroke-opacity:1" />
    <path
       id="path109"
       d="m 272.34108,140.77847 -3.69152,-5.30658 a 1.6862681,1.6862681 0 0 0 -1.38429,-0.7233 h -9.47956 a 1.6862681,1.6862681 0 0 0 -1.38429,0.7233 l -3.69152,5.30658 a 1.6863034,1.6863034 0 0 0 -0.30202,0.963 v 4.81099 c 0,0.93131 0.75496,1.68627 1.68627,1.68627 h 16.86268 c 0.93131,0 1.68627,-0.75496 1.68627,-1.68627 v -4.81099 c 0,-0.34431 -0.1054,-0.68034 -0.30202,-0.963 z m -14.55537,-4.34362 h 9.47956 l 2.73713,3.93463 h -14.95382 z m 13.17112,10.11761 h -16.86268 v -4.49672 h 16.86268 z m -1.12417,-2.24836 c 0,0.62087 -0.50333,1.12418 -1.12419,1.12418 -0.62086,0 -1.12418,-0.50331 -1.12418,-1.12418 0,-0.62085 0.50332,-1.12418 1.12418,-1.12418 0.62086,0 1.12419,0.50333 1.12419,1.12418 z m -3.37254,0 c 0,0.62087 -0.50332,1.12418 -1.12418,1.12418 -0.62087,0 -1.12418,-0.50331 -1.12418,-1.12418 0,-0.62085 0.50331,-1.12418 1.12418,-1.12418 0.62086,0 1.12418,0.50333 1.12418,1.12418 z"
       inkscape:connector-curvature="0"
       style="stroke-width:0.03513059;opacity:0.406" />
    <path
       id="path120"
       d="m 135.54114,215.04393 -1.6332,-0.4739 c -0.17135,-0.0482 -0.26774,-0.22758 -0.21954,-0.39893 l 3.65462,-12.58903 c 0.0482,-0.17136 0.22758,-0.26774 0.39893,-0.21955 l 1.6332,0.4739 c 0.17135,0.0482 0.26774,0.22758 0.21954,0.39893 l -3.65462,12.58903 c -0.0509,0.17135 -0.22757,0.27042 -0.39893,0.21955 z m -3.05221,-3.00402 1.16466,-1.2423 c 0.12316,-0.1312 0.11513,-0.34003 -0.0214,-0.46051 l -2.4257,-2.13388 2.4257,-2.13387 c 0.13655,-0.12048 0.14726,-0.32931 0.0214,-0.46051 l -1.16466,-1.2423 c -0.12048,-0.12851 -0.32396,-0.13654 -0.45515,-0.0134 l -3.85811,3.61447 c -0.13654,0.12583 -0.13654,0.3427 0,0.46854 l 3.85811,3.61714 c 0.13119,0.12316 0.33467,0.1178 0.45515,-0.0134 z m 8.76039,0.0161 3.8581,-3.61714 c 0.13654,-0.12583 0.13654,-0.3427 0,-0.46854 l -3.8581,-3.61981 c -0.12852,-0.12048 -0.332,-0.11513 -0.45516,0.0134 l -1.16466,1.24231 c -0.12316,0.13119 -0.11513,0.34002 0.0214,0.46051 l 2.4257,2.13654 -2.4257,2.13388 c -0.13655,0.12048 -0.14726,0.32931 -0.0214,0.46051 l 1.16466,1.2423 c 0.12048,0.13119 0.32396,0.13655 0.45516,0.0161 z"
       inkscape:connector-curvature="0"
       style="opacity:0.57099998;stroke-width:0.02677379" />
    <path
       id="path142"
       d="m 66.540883,167.56762 -10.368762,1.73214 c -0.780603,0.1304 -1.308125,0.86951 -1.177721,1.65013 l 2.047075,12.25399 c 0.130403,0.7806 0.86952,1.30811 1.650123,1.17771 l 10.368762,-1.73214 c 0.780604,-0.1304 1.308124,-0.86951 1.177722,-1.65012 l -2.047075,-12.25399 c -0.130405,-0.78061 -0.86952,-1.30813 -1.650124,-1.17772 z m -2.82237,15.00529 c -0.521385,0.0871 -1.012983,-0.26376 -1.100082,-0.78515 -0.0871,-0.52138 0.263762,-1.01298 0.785147,-1.10008 0.521384,-0.0871 1.012982,0.26376 1.100081,0.78515 0.0871,0.52138 -0.263762,1.01298 -0.785146,1.10008 z m 4.652929,-4.04739 c 0.03248,0.1944 -0.100018,0.38004 -0.294431,0.41252 l -9.661803,1.61404 c -0.194414,0.0325 -0.380052,-0.10001 -0.412529,-0.29442 l -1.535308,-9.1905 c -0.03248,-0.19442 0.100017,-0.38005 0.294431,-0.41253 l 9.661803,-1.61404 c 0.194413,-0.0325 0.380051,0.10001 0.412529,0.29443 z"
       inkscape:connector-curvature="0"
       style="stroke-width:0.0298649;stroke:#000000;stroke-opacity:1;opacity:0.607" />
    <path
       id="path164"
       d="m 324.86105,206.5873 -6.11318,-0.32472 c -0.7232,-0.0384 -1.34112,0.51715 -1.37953,1.24038 l -0.60305,11.35303 c -0.0384,0.72321 0.51718,1.34114 1.24038,1.37955 l 6.11318,0.32472 c 0.72321,0.0384 1.34113,-0.51718 1.37954,-1.24039 l 0.60305,-11.35303 c 0.0384,-0.72323 -0.51718,-1.34113 -1.24039,-1.37954 z m -3.75241,12.9373 c -0.48305,-0.0257 -0.85256,-0.43667 -0.82691,-0.91971 0.0257,-0.48306 0.43664,-0.85257 0.91969,-0.82692 0.48306,0.0257 0.85257,0.43663 0.82691,0.91969 -0.0257,0.48305 -0.43663,0.8526 -0.91969,0.82694 z m 3.21315,-2.78508 c -0.01,0.18013 -0.16478,0.31965 -0.34488,0.31009 l -5.4582,-0.28993 c -0.18013,-0.01 -0.31966,-0.16477 -0.3101,-0.34487 l 0.45229,-8.51478 c 0.01,-0.18013 0.16479,-0.31966 0.34488,-0.31009 l 5.4582,0.28992 c 0.18014,0.01 0.31966,0.16477 0.3101,0.34489 z"
       inkscape:connector-curvature="0"
       style="opacity:0.61400003;stroke-width:0.02732942" />
    <path
       id="path175"
       d="m 223.81894,183.84559 c 3.33324,2.63495 5.38415,6.7789 5.16171,11.34507 -0.36531,7.49883 -6.73507,13.28204 -14.22922,12.93344 -7.48318,-0.34812 -13.3144,-6.74764 -12.96058,-14.23602 0.21745,-4.56643 2.6615,-8.50239 6.22985,-10.80662 0.66352,-0.42374 1.54768,-0.18835 1.898,0.51555 l 0.79106,1.58252 c 0.29537,0.59132 0.10637,1.3129 -0.44457,1.68167 -2.35712,1.57751 -3.94005,4.18177 -4.08772,7.21309 -0.25147,5.05928 3.63489,9.41351 8.76019,9.66319 5.02115,0.24461 9.44013,-3.61711 9.66065,-8.82074 0.12194,-2.84028 -1.08212,-5.64623 -3.37513,-7.52721 -0.5125,-0.42058 -0.62497,-1.15683 -0.2738,-1.71117 l 0.94112,-1.49814 c 0.41684,-0.66103 1.31474,-0.82058 1.92844,-0.33463 z m -6.26137,11.22816 0.64089,-13.15585 c 0.0355,-0.72905 -0.52244,-1.34416 -1.2515,-1.37967 l -1.75411,-0.0854 c -0.72905,-0.0355 -1.34416,0.52244 -1.37968,1.25149 l -0.64089,13.15584 c -0.0355,0.72906 0.52244,1.34417 1.2515,1.37968 l 1.75411,0.0855 c 0.72905,0.0355 1.34416,-0.52245 1.37968,-1.2515 z"
       inkscape:connector-curvature="0"
       style="opacity:0.107;fill:#ffffff;fill-opacity:1;stroke-width:0.054881" />
  </g>
</svg>
