<?xml version="1.0" encoding="UTF-8" standalone="no"?>
<!-- Created with Inkscape (http://www.inkscape.org/) -->

<svg
   xmlns:dc="http://purl.org/dc/elements/1.1/"
   xmlns:cc="http://creativecommons.org/ns#"
   xmlns:rdf="http://www.w3.org/1999/02/22-rdf-syntax-ns#"
   xmlns:svg="http://www.w3.org/2000/svg"
   xmlns="http://www.w3.org/2000/svg"
   xmlns:sodipodi="http://sodipodi.sourceforge.net/DTD/sodipodi-0.dtd"
   xmlns:inkscape="http://www.inkscape.org/namespaces/inkscape"
   width="2200"
   height="700"
   viewBox="0 0 582.08332 185.20834"
   version="1.1"
   id="svg8"
   inkscape:version="0.92.4 (5da689c313, 2019-01-14)"
   sodipodi:docname="heroBg.svg">
  <defs
     id="defs2" />
  <sodipodi:namedview
     id="base"
     pagecolor="#ffffff"
     bordercolor="#666666"
     borderopacity="1.0"
     inkscape:pageopacity="0.0"
     inkscape:pageshadow="2"
     inkscape:zoom="1.4"
     inkscape:cx="1544.3118"
     inkscape:cy="122.62853"
     inkscape:document-units="mm"
     inkscape:current-layer="layer1"
     showgrid="false"
     units="px"
     inkscape:pagecheckerboard="true"
     inkscape:window-width="2312"
     inkscape:window-height="2083"
     inkscape:window-x="1518"
     inkscape:window-y="0"
     inkscape:window-maximized="0" />
  <metadata
     id="metadata5">
    <rdf:RDF>
      <cc:Work
         rdf:about="">
        <dc:format>image/svg+xml</dc:format>
        <dc:type
           rdf:resource="http://purl.org/dc/dcmitype/StillImage" />
        <dc:title />
      </cc:Work>
    </rdf:RDF>
  </metadata>
  <g
     inkscape:label="Layer 1"
     inkscape:groupmode="layer"
     id="layer1"
     transform="translate(0,-111.79164)">
    <path
       id="path10"
       d="m 268.9448,165.97209 0.25035,1.3591 c 0.22062,1.1977 -2.58234,2.724 -6.25897,3.40126 -3.67663,0.67725 -6.83949,0.24988 -7.06011,-0.94782 l -0.25035,-1.35909 c -0.22062,-1.1977 2.58235,-2.72401 6.25898,-3.40126 3.67663,-0.67726 6.83947,-0.24988 7.0601,0.94781 z m 0.56329,3.05796 0.56328,3.05794 c 0.22063,1.19771 -2.58234,2.72402 -6.25897,3.40128 -3.67662,0.67725 -6.83947,0.24987 -7.0601,-0.94784 l -0.56329,-3.05794 c 1.61227,0.72179 4.31548,0.69812 6.92554,0.21733 2.61006,-0.48078 5.14425,-1.42187 6.39354,-2.67077 z m 0.87622,4.75681 0.56329,3.05795 c 0.22063,1.1977 -2.58234,2.72401 -6.25897,3.40126 -3.67663,0.67726 -6.83948,0.24989 -7.0601,-0.94781 l -0.56329,-3.05796 c 1.61227,0.72179 4.31548,0.69811 6.92554,0.21733 2.61006,-0.48079 5.14425,-1.42187 6.39353,-2.67077 z"
       inkscape:connector-curvature="0"
       style="opacity:0.43200001;stroke-width:0.03023026" />
    <path
       id="path43"
       d="m 171.6611,273.50968 -18.20953,1.02816 c -1.00569,0.0568 -1.77491,0.91808 -1.71813,1.92377 l 0.6169,10.92572 c 0.0568,1.0057 0.91806,1.77491 1.92376,1.71813 l 18.20953,-1.02816 c 1.00569,-0.0568 1.77491,-0.91807 1.71813,-1.92376 l -0.6169,-10.92572 c -0.0568,-1.0057 -0.91807,-1.77492 -1.92376,-1.71814 z m 1.0232,12.72954 c 0.009,0.16734 -0.11902,0.31118 -0.28635,0.32063 l -18.20953,1.02815 c -0.16734,0.009 -0.31118,-0.11902 -0.32062,-0.28635 l -0.6169,-10.92572 c -0.009,-0.16735 0.11901,-0.31118 0.28635,-0.32063 l 18.20953,-1.02816 c 0.16734,-0.009 0.31118,0.11902 0.32063,0.28636 z m -14.16322,-4.14778 -0.06,-1.06222 c -0.0142,-0.25141 -0.22955,-0.44373 -0.48095,-0.42954 l -1.06222,0.06 c -0.2514,0.0142 -0.44373,0.22954 -0.42954,0.48095 l 0.06,1.06222 c 0.0142,0.25141 0.22954,0.44373 0.48094,0.42953 l 1.06222,-0.06 c 0.2514,-0.0142 0.44374,-0.22954 0.42954,-0.48095 z m 3.64191,-0.20563 -0.06,-1.06223 c -0.0142,-0.2514 -0.22953,-0.44372 -0.48093,-0.42953 l -1.06222,0.06 c -0.25141,0.0142 -0.44374,0.22953 -0.42954,0.48094 l 0.06,1.06222 c 0.0142,0.25141 0.22954,0.44373 0.48095,0.42954 l 1.06223,-0.06 c 0.2514,-0.0142 0.44372,-0.22953 0.42953,-0.48094 z m 3.64189,-0.20563 -0.06,-1.06222 c -0.0142,-0.25141 -0.22954,-0.44373 -0.48095,-0.42954 l -1.06222,0.06 c -0.2514,0.0142 -0.44372,0.22954 -0.42953,0.48095 l 0.06,1.06222 c 0.0142,0.2514 0.22953,0.44373 0.48094,0.42953 l 1.06222,-0.06 c 0.25141,-0.0142 0.44372,-0.22954 0.42953,-0.48093 z m 3.64191,-0.20564 -0.06,-1.06222 c -0.0142,-0.2514 -0.22954,-0.44372 -0.48095,-0.42953 l -1.06221,0.06 c -0.25141,0.0142 -0.44373,0.22954 -0.42954,0.48094 l 0.06,1.06222 c 0.0142,0.25141 0.22953,0.44373 0.48094,0.42953 l 1.06221,-0.06 c 0.25141,-0.0142 0.44374,-0.22953 0.42954,-0.48094 z m -12.57102,3.83051 -0.06,-1.06222 c -0.0142,-0.25141 -0.22954,-0.44373 -0.48094,-0.42954 l -1.06223,0.06 c -0.25141,0.0142 -0.44373,0.22953 -0.42953,0.48094 l 0.06,1.06222 c 0.0142,0.2514 0.22953,0.44373 0.48094,0.42953 l 1.06222,-0.06 c 0.2514,-0.0142 0.44373,-0.22954 0.42953,-0.48094 z m 14.56762,-0.82253 -0.06,-1.06222 c -0.0142,-0.2514 -0.22954,-0.44373 -0.48094,-0.42953 l -1.06223,0.06 c -0.2514,0.0142 -0.44373,0.22954 -0.42953,0.48094 l 0.06,1.06222 c 0.0142,0.25141 0.22954,0.44373 0.48094,0.42954 l 1.06223,-0.06 c 0.2514,-0.0142 0.44373,-0.22955 0.42953,-0.48095 z m -14.91891,-5.39906 -0.06,-1.06223 c -0.0142,-0.25141 -0.22954,-0.44372 -0.48094,-0.42953 l -1.06223,0.06 c -0.2514,0.0142 -0.44373,0.22954 -0.42952,0.48094 l 0.06,1.06222 c 0.0142,0.25141 0.22953,0.44374 0.48093,0.42955 l 1.06223,-0.06 c 0.2514,-0.0142 0.44373,-0.22954 0.42953,-0.48095 z m 3.64191,-0.20563 -0.06,-1.06223 c -0.0142,-0.2514 -0.22954,-0.44372 -0.48094,-0.42952 l -1.06222,0.06 c -0.25141,0.0142 -0.44374,0.22953 -0.42955,0.48094 l 0.06,1.06223 c 0.0142,0.2514 0.22954,0.44373 0.48095,0.42953 l 1.06222,-0.06 c 0.2514,-0.0142 0.44373,-0.22954 0.42953,-0.48094 z m 3.6419,-0.20564 -0.06,-1.06222 c -0.0142,-0.25141 -0.22953,-0.44372 -0.48093,-0.42953 l -1.06222,0.06 c -0.25141,0.0142 -0.44373,0.22953 -0.42953,0.48094 l 0.06,1.06222 c 0.0142,0.25141 0.22953,0.44374 0.48094,0.42954 l 1.06222,-0.06 c 0.2514,-0.0142 0.44373,-0.22955 0.42953,-0.48096 z m 3.64191,-0.20562 -0.06,-1.06223 c -0.0142,-0.2514 -0.22953,-0.44372 -0.48094,-0.42953 l -1.06222,0.06 c -0.2514,0.0142 -0.44373,0.22954 -0.42953,0.48094 l 0.06,1.06223 c 0.0142,0.2514 0.22954,0.44373 0.48094,0.42953 l 1.06222,-0.06 c 0.25141,-0.0142 0.44373,-0.22954 0.42954,-0.48094 z m 3.64191,-0.20564 -0.06,-1.06222 c -0.0142,-0.25141 -0.22954,-0.44373 -0.48094,-0.42954 l -1.06223,0.06 c -0.2514,0.0142 -0.44372,0.22953 -0.42953,0.48094 l 0.06,1.06222 c 0.0142,0.25141 0.22954,0.44374 0.48095,0.42954 l 1.06222,-0.06 c 0.2514,-0.0142 0.44373,-0.22954 0.42954,-0.48095 z m -3.37935,6.20389 -0.0343,-0.60699 c -0.0142,-0.2514 -0.22954,-0.44373 -0.48094,-0.42953 l -8.19429,0.46267 c -0.2514,0.0142 -0.44373,0.22955 -0.42954,0.48094 l 0.0343,0.60699 c 0.0142,0.2514 0.22954,0.44372 0.48095,0.42953 l 8.19428,-0.46267 c 0.2514,-0.0142 0.44373,-0.22954 0.42953,-0.48094 z"
       inkscape:connector-curvature="0"
       style="opacity:0.43800001;stroke-width:0.03799693" />
    <path
       id="path54"
       d="M 86.763585,253.26151 H 45.401196 c -2.283548,0 -4.136239,1.85269 -4.136239,4.13624 v 27.57492 c 0,2.28355 1.852691,4.13624 4.136239,4.13624 h 16.544956 l -1.378746,4.13624 h -6.204359 c -1.146083,0 -2.068119,0.92204 -2.068119,2.06812 0,1.14608 0.922036,2.06812 2.068119,2.06812 h 23.438686 c 1.146084,0 2.06812,-0.92204 2.06812,-2.06812 0,-1.14608 -0.922036,-2.06812 -2.06812,-2.06812 h -6.204357 l -1.378746,-4.13624 h 16.544955 c 2.283549,0 4.136239,-1.85269 4.136239,-4.13624 v -27.57492 c 0,-2.28355 -1.85269,-4.13624 -4.136239,-4.13624 z M 85.38484,283.59392 H 46.779942 V 258.77649 H 85.38484 Z"
       inkscape:connector-curvature="0"
       style="opacity:0.18500001;stroke-width:0.08617164" />
    <path
       id="path76"
       d="m 413.3367,208.99529 7.38815,-0.74821 c 2.03944,-0.20655 3.52651,-2.02875 3.31997,-4.0682 l 1.23136,-0.1247 c 2.71669,-0.27512 4.70176,-2.70754 4.42663,-5.42424 -0.27513,-2.71669 -2.70756,-4.70175 -5.42424,-4.42662 l -15.08415,1.5276 c -0.5118,0.0518 -0.88183,0.50526 -0.83,1.01704 l 0.90409,8.92735 c 0.20653,2.03944 2.02875,3.52652 4.06819,3.31998 z m 11.19127,-12.32925 c 1.35834,-0.13758 2.57456,0.85496 2.71213,2.21331 0.13756,1.35834 -0.85498,2.57455 -2.21332,2.71211 l -1.23137,0.12472 -0.4988,-4.92544 z m 3.33192,14.59042 -19.67866,1.99289 c -1.83165,0.18549 -2.59668,-2.225 -1.63469,-2.32242 l 22.44537,-2.27308 c 0.96201,-0.0974 0.70347,2.41673 -1.13202,2.60261 z"
       inkscape:connector-curvature="0"
       style="opacity:0.38600003;stroke-width:0.03867679" />
    <path
       id="path87"
       d="M 21.635401,201.76548 3.4248377,199.73 c -0.718384,-0.0803 -1.235661,-0.72776 -1.155365,-1.44614 l 0.290782,-2.60151 c 0.0803,-0.71838 0.727763,-1.23566 1.446146,-1.15536 l 18.2105643,2.03547 c 0.718381,0.0803 1.23566,0.72776 1.155363,1.44615 l -0.290782,2.60151 c -0.0803,0.71837 -0.727764,1.23565 -1.446145,1.15536 z m -1.551308,-3.79516 c -0.538796,-0.0602 -1.024385,0.32772 -1.084609,0.86652 -0.06022,0.53879 0.327727,1.02438 0.866523,1.08461 0.538797,0.0602 1.024387,-0.32773 1.08461,-0.86653 0.06022,-0.53879 -0.327727,-1.02438 -0.866524,-1.0846 z m -2.601508,-0.29079 c -0.538797,-0.0602 -1.024386,0.32773 -1.084609,0.86653 -0.06022,0.53879 0.327726,1.02438 0.866523,1.0846 0.538796,0.0602 1.024385,-0.32772 1.084608,-0.86652 0.06022,-0.53879 -0.327726,-1.02438 -0.866522,-1.08461 z m 3.425861,10.58973 -18.2105643,-2.03548 c -0.718383,-0.0803 -1.23566,-0.72776 -1.155363,-1.44615 l 0.290782,-2.60151 c 0.0803,-0.71837 0.727762,-1.23565 1.446145,-1.15536 l 18.2105633,2.03548 c 0.718382,0.0803 1.235661,0.72776 1.155365,1.44614 l -0.290782,2.60151 c -0.0803,0.71838 -0.727765,1.23566 -1.446146,1.15537 z m -1.551307,-3.79517 c -0.538796,-0.0602 -1.024385,0.32772 -1.08461,0.86653 -0.06022,0.53879 0.327727,1.02438 0.866523,1.0846 0.538797,0.0602 1.024386,-0.32772 1.08461,-0.86652 0.06022,-0.5388 -0.327726,-1.02439 -0.866523,-1.08461 z m -2.601508,-0.29079 c -0.538797,-0.0602 -1.024386,0.32773 -1.08461,0.86653 -0.06022,0.5388 0.327726,1.02439 0.866522,1.08461 0.538797,0.0602 1.024386,-0.32772 1.084609,-0.86652 0.06023,-0.5388 -0.327725,-1.02439 -0.866521,-1.08462 z m 3.425861,10.58972 -18.2105643,-2.03547 c -0.718383,-0.0803 -1.23565997,-0.72776 -1.15536297,-1.44615 l 0.29078097,-2.6015 c 0.0803,-0.71838 0.727763,-1.23566 1.446146,-1.15537 l 18.2105633,2.03548 c 0.718382,0.0803 1.235661,0.72776 1.155364,1.44615 l -0.290781,2.6015 c -0.0803,0.71838 -0.727765,1.23566 -1.446146,1.15536 z m -1.551308,-3.79516 c -0.538796,-0.0602 -1.024385,0.32773 -1.084609,0.86653 -0.06022,0.53879 0.327727,1.02438 0.866523,1.0846 0.538797,0.0602 1.024386,-0.32772 1.08461,-0.86652 0.06022,-0.53879 -0.327727,-1.02438 -0.866524,-1.08461 z m -2.601508,-0.29078 c -0.538797,-0.0602 -1.024386,0.32773 -1.084609,0.86652 -0.06022,0.5388 0.327726,1.02439 0.866522,1.08461 0.538797,0.0602 1.024386,-0.32773 1.084609,-0.86652 0.06022,-0.53879 -0.327726,-1.02438 -0.866522,-1.08461 z"
       inkscape:connector-curvature="0"
       style="opacity:0.09100001;fill:#ffffff;fill-opacity:1;stroke:#000000;stroke-width:0.04090171;stroke-opacity:1" />
    <path
       id="path109"
       d="m 194.83292,143.45117 -3.69152,-5.30658 a 1.6862681,1.6862681 0 0 0 -1.38429,-0.7233 h -9.47956 a 1.6862681,1.6862681 0 0 0 -1.38429,0.7233 l -3.69152,5.30658 a 1.6863034,1.6863034 0 0 0 -0.30202,0.963 v 4.81099 c 0,0.93131 0.75496,1.68627 1.68627,1.68627 h 16.86268 c 0.93131,0 1.68627,-0.75496 1.68627,-1.68627 v -4.81099 c 0,-0.34431 -0.1054,-0.68034 -0.30202,-0.963 z m -14.55537,-4.34362 h 9.47956 l 2.73713,3.93463 h -14.95382 z m 13.17112,10.11761 h -16.86268 v -4.49672 h 16.86268 z m -1.12417,-2.24836 c 0,0.62087 -0.50333,1.12418 -1.12419,1.12418 -0.62086,0 -1.12418,-0.50331 -1.12418,-1.12418 0,-0.62085 0.50332,-1.12418 1.12418,-1.12418 0.62086,0 1.12419,0.50333 1.12419,1.12418 z m -3.37254,0 c 0,0.62087 -0.50332,1.12418 -1.12418,1.12418 -0.62087,0 -1.12418,-0.50331 -1.12418,-1.12418 0,-0.62085 0.50331,-1.12418 1.12418,-1.12418 0.62086,0 1.12418,0.50333 1.12418,1.12418 z"
       inkscape:connector-curvature="0"
       style="opacity:0.406;stroke-width:0.03513059" />
    <path
       id="path120"
       d="m 149.33727,213.53203 -1.6332,-0.4739 c -0.17135,-0.0482 -0.26774,-0.22758 -0.21954,-0.39893 l 3.65462,-12.58903 c 0.0482,-0.17136 0.22758,-0.26774 0.39893,-0.21955 l 1.6332,0.4739 c 0.17135,0.0482 0.26774,0.22758 0.21954,0.39893 l -3.65462,12.58903 c -0.0509,0.17135 -0.22757,0.27042 -0.39893,0.21955 z m -3.05221,-3.00402 1.16466,-1.2423 c 0.12316,-0.1312 0.11513,-0.34003 -0.0214,-0.46051 l -2.4257,-2.13388 2.4257,-2.13387 c 0.13655,-0.12048 0.14726,-0.32931 0.0214,-0.46051 l -1.16466,-1.2423 c -0.12048,-0.12851 -0.32396,-0.13654 -0.45515,-0.0134 l -3.85811,3.61447 c -0.13654,0.12583 -0.13654,0.3427 0,0.46854 l 3.85811,3.61714 c 0.13119,0.12316 0.33467,0.1178 0.45515,-0.0134 z m 8.76039,0.0161 3.8581,-3.61714 c 0.13654,-0.12583 0.13654,-0.3427 0,-0.46854 l -3.8581,-3.61981 c -0.12852,-0.12048 -0.332,-0.11513 -0.45516,0.0134 l -1.16466,1.24231 c -0.12316,0.13119 -0.11513,0.34002 0.0214,0.46051 l 2.4257,2.13654 -2.4257,2.13388 c -0.13655,0.12048 -0.14726,0.32931 -0.0214,0.46051 l 1.16466,1.2423 c 0.12048,0.13119 0.32396,0.13655 0.45516,0.0161 z"
       inkscape:connector-curvature="0"
       style="opacity:0.57099998;stroke-width:0.02677379" />
    <path
       id="path142"
       d="m 101.88166,188.16732 -10.368766,1.73214 c -0.780603,0.1304 -1.308125,0.86951 -1.177721,1.65013 l 2.047075,12.25399 c 0.130403,0.7806 0.86952,1.30811 1.650123,1.17771 l 10.368759,-1.73214 c 0.78061,-0.1304 1.30813,-0.86951 1.17773,-1.65012 l -2.04708,-12.25399 c -0.1304,-0.78061 -0.86952,-1.30813 -1.65012,-1.17772 z m -2.822374,15.00529 c -0.521385,0.0871 -1.012983,-0.26376 -1.100082,-0.78515 -0.0871,-0.52138 0.263762,-1.01298 0.785147,-1.10008 0.521384,-0.0871 1.012982,0.26376 1.100081,0.78515 0.0871,0.52138 -0.263762,1.01298 -0.785146,1.10008 z m 4.652934,-4.04739 c 0.0325,0.1944 -0.10002,0.38004 -0.29444,0.41252 l -9.661799,1.61404 c -0.194414,0.0325 -0.380052,-0.10001 -0.412529,-0.29442 l -1.535308,-9.1905 c -0.03248,-0.19442 0.100017,-0.38005 0.294431,-0.41253 l 9.661805,-1.61404 c 0.19441,-0.0325 0.38005,0.10001 0.41253,0.29443 z"
       inkscape:connector-curvature="0"
       style="opacity:0.60700001;stroke:#000000;stroke-width:0.0298649;stroke-opacity:1" />
    <path
       id="path164"
       d="m 88.923258,195.6492 -6.11318,-0.32472 c -0.7232,-0.0384 -1.34112,0.51715 -1.37953,1.24038 l -0.60305,11.35303 c -0.0384,0.72321 0.51718,1.34114 1.24038,1.37955 l 6.11318,0.32472 c 0.72321,0.0384 1.34113,-0.51718 1.37954,-1.24039 l 0.60305,-11.35303 c 0.0384,-0.72323 -0.51718,-1.34113 -1.24039,-1.37954 z m -3.75241,12.9373 c -0.48305,-0.0257 -0.85256,-0.43667 -0.82691,-0.91971 0.0257,-0.48306 0.43664,-0.85257 0.91969,-0.82692 0.48306,0.0257 0.85257,0.43663 0.82691,0.91969 -0.0257,0.48305 -0.43663,0.8526 -0.91969,0.82694 z m 3.21315,-2.78508 c -0.01,0.18013 -0.16478,0.31965 -0.34488,0.31009 l -5.4582,-0.28993 c -0.18013,-0.01 -0.31966,-0.16477 -0.3101,-0.34487 l 0.45229,-8.51478 c 0.01,-0.18013 0.16479,-0.31966 0.34488,-0.31009 l 5.4582,0.28992 c 0.18014,0.01 0.31966,0.16477 0.3101,0.34489 z"
       inkscape:connector-curvature="0"
       style="opacity:0.61400003;stroke-width:0.02732942" />
    <path
       id="path175"
       d="m 343.89626,170.28894 c 2.31502,1.83004 3.73943,4.70812 3.58494,7.87944 -0.25371,5.20814 -4.67768,9.22472 -9.88256,8.98261 -5.19726,-0.24178 -9.24719,-4.68641 -9.00145,-9.88728 0.15102,-3.1715 1.84848,-5.90513 4.32679,-7.50548 0.46083,-0.29429 1.0749,-0.13081 1.31821,0.35807 l 0.54941,1.0991 c 0.20514,0.41068 0.0739,0.91184 -0.30877,1.16796 -1.63708,1.09562 -2.73646,2.90435 -2.83902,5.00968 -0.17466,3.5138 2.52452,6.53792 6.08417,6.71133 3.48732,0.16989 6.55642,-2.51217 6.70957,-6.12623 0.0847,-1.97265 -0.75156,-3.92145 -2.34411,-5.22784 -0.35594,-0.2921 -0.43406,-0.80345 -0.19016,-1.18845 l 0.65363,-1.0405 c 0.28951,-0.4591 0.91312,-0.56991 1.33935,-0.23241 z m -4.34868,7.79825 0.44511,-9.13708 c 0.0247,-0.50634 -0.36284,-0.93355 -0.8692,-0.95822 l -1.21827,-0.0593 c -0.50634,-0.0247 -0.93355,0.36285 -0.95822,0.86919 l -0.44512,9.13707 c -0.0247,0.50635 0.36285,0.93356 0.8692,0.95823 l 1.21828,0.0594 c 0.50634,0.0247 0.93355,-0.36286 0.95822,-0.8692 z"
       inkscape:connector-curvature="0"
       style="opacity:0.10700001;fill:#ffffff;fill-opacity:1;stroke-width:0.03811627" />
    <path
       id="path834"
       d="m 353.22818,292.77609 h -2.92174 v -66.61562 c 0,-1.93638 -1.5697,-3.50609 -3.50608,-3.50609 h -49.0852 c -1.93638,0 -3.50608,1.56971 -3.50608,3.50609 v 66.61562 h -2.92174 c -0.96812,0 -1.75304,0.78492 -1.75304,1.75304 v 2.92174 h 65.44692 v -2.92174 c 0,-0.96812 -0.78492,-1.75304 -1.75304,-1.75304 z m -44.99476,-59.01911 c 0,-0.96811 0.78493,-1.75304 1.75304,-1.75304 h 5.84348 c 0.96812,0 1.75304,0.78493 1.75304,1.75304 v 5.84348 c 0,0.96812 -0.78492,1.75305 -1.75304,1.75305 h -5.84348 c -0.96811,0 -1.75304,-0.78493 -1.75304,-1.75305 z m 0,14.02434 c 0,-0.96811 0.78493,-1.75304 1.75304,-1.75304 h 5.84348 c 0.96812,0 1.75304,0.78493 1.75304,1.75304 v 5.84348 c 0,0.96812 -0.78492,1.75305 -1.75304,1.75305 h -5.84348 c -0.96811,0 -1.75304,-0.78493 -1.75304,-1.75305 z m 7.59652,21.62087 h -5.84348 c -0.96811,0 -1.75304,-0.78493 -1.75304,-1.75304 v -5.84348 c 0,-0.96812 0.78493,-1.75305 1.75304,-1.75305 h 5.84348 c 0.96812,0 1.75304,0.78493 1.75304,1.75305 v 5.84348 c 0,0.96811 -0.78492,1.75304 -1.75304,1.75304 z m 11.1026,23.3739 h -9.34956 v -12.2713 c 0,-0.96812 0.78493,-1.75304 1.75304,-1.75304 h 5.84348 c 0.96812,0 1.75304,0.78492 1.75304,1.75304 z m 9.34956,-25.12694 c 0,0.96811 -0.78492,1.75304 -1.75304,1.75304 h -5.84347 c -0.96813,0 -1.75305,-0.78493 -1.75305,-1.75304 v -5.84348 c 0,-0.96812 0.78492,-1.75305 1.75305,-1.75305 h 5.84347 c 0.96812,0 1.75304,0.78493 1.75304,1.75305 z m 0,-14.02435 c 0,0.96812 -0.78492,1.75305 -1.75304,1.75305 h -5.84347 c -0.96813,0 -1.75305,-0.78493 -1.75305,-1.75305 v -5.84348 c 0,-0.96811 0.78492,-1.75304 1.75305,-1.75304 h 5.84347 c 0.96812,0 1.75304,0.78493 1.75304,1.75304 z m 0,-14.02434 c 0,0.96812 -0.78492,1.75305 -1.75304,1.75305 h -5.84347 c -0.96813,0 -1.75305,-0.78493 -1.75305,-1.75305 v -5.84348 c 0,-0.96811 0.78492,-1.75304 1.75305,-1.75304 h 5.84347 c 0.96812,0 1.75304,0.78493 1.75304,1.75304 z"
       inkscape:connector-curvature="0"
       style="opacity:0.169;stroke-width:0.14608687" />
    <path
       id="path845"
       d="m 566.04855,148.35232 c -14.64418,5.67536 -22.51548,21.78756 -17.99931,36.82346 0.1698,0.56544 0.77591,0.87111 1.33355,0.67721 l 2.96465,-1.03108 c 0.53222,-0.18436 0.82207,-0.75859 0.66238,-1.29879 -3.64565,-12.35184 2.79362,-25.52991 14.78224,-30.24188 0.52434,-0.20588 0.79853,-0.78748 0.61794,-1.32052 l -1.00771,-2.97266 c -0.19005,-0.55849 -0.80336,-0.84903 -1.35384,-0.6357 z m 2.52529,24.04514 c -1.01024,2.06679 -0.15395,4.56064 1.91284,5.57089 2.06678,1.01025 4.56063,0.15396 5.57089,-1.91284 1.01025,-2.06679 0.15394,-4.56064 -1.91283,-5.57089 -2.0668,-1.01024 -4.56064,-0.15396 -5.5709,1.91284 z m 0.90478,-14.23834 c -9.25347,3.82586 -14.24684,14.05775 -11.58402,23.69889 0.15949,0.57773 0.77234,0.89325 1.33722,0.69491 l 2.97151,-1.04223 c 0.51761,-0.18156 0.81705,-0.73497 0.67694,-1.26633 -1.84376,-6.98222 1.76049,-14.33216 8.38751,-17.15938 0.50535,-0.21584 0.7586,-0.79177 0.58337,-1.31205 l -1.00337,-2.98488 c -0.19015,-0.56817 -0.81654,-0.85764 -1.36951,-0.62885 z"
       inkscape:connector-curvature="0"
       style="opacity:0.192;fill:#ffffff;fill-opacity:1;stroke-width:0.06507749" />
    <path
       id="path856"
       d="m 258.46029,221.66036 -6.37563,-1.788 a 3.3100772,3.3100772 0 1 0 0.75613,6.05628 l 1.82304,0.51126 a 3.3100772,3.3100772 0 1 0 3.79646,-4.77954 z m -5.58355,2.12975 a 0.2482558,0.2482558 0 0 1 -0.30607,0.172 l -1.03582,-0.29049 -0.29048,1.03581 a 0.2482558,0.2482558 0 0 1 -0.30607,0.172 l -0.47807,-0.13407 a 0.2482558,0.2482558 0 0 1 -0.17199,-0.30607 l 0.29048,-1.03581 -1.03582,-0.29049 a 0.2482558,0.2482558 0 0 1 -0.17199,-0.30606 l 0.13407,-0.47807 a 0.2482558,0.2482558 0 0 1 0.30606,-0.172 l 1.03582,0.29048 0.29049,-1.03581 a 0.2482558,0.2482558 0 0 1 0.30606,-0.172 l 0.47808,0.13407 a 0.2482558,0.2482558 0 0 1 0.17199,0.30607 l -0.29049,1.03581 1.03582,0.29049 a 0.2482558,0.2482558 0 0 1 0.172,0.30607 z m 3.87806,2.72051 a 0.82751929,0.82751929 0 1 1 1.02023,-0.57333 0.82751929,0.82751929 0 0 1 -1.02023,0.57333 z m 1.81112,-1.55475 a 0.82751929,0.82751929 0 1 1 1.02024,-0.57333 0.82751929,0.82751929 0 0 1 -1.02024,0.57333 z"
       inkscape:connector-curvature="0"
       style="stroke-width:0.02068798" />
    <path
       id="path856-6"
       d="m 262.31839,228.39585 -6.6189,0.18897 a 3.3100772,3.3100772 0 1 0 2.52302,5.55739 l 1.89261,-0.054 a 3.3100772,3.3100772 0 1 0 2.20327,-5.69233 z m -4.69754,3.6939 a 0.2482558,0.2482558 0 0 1 -0.24107,0.25524 l -1.07535,0.0307 0.0307,1.07534 a 0.2482558,0.2482558 0 0 1 -0.24107,0.25524 l -0.49631,0.0142 a 0.2482558,0.2482558 0 0 1 -0.25523,-0.24108 l -0.0307,-1.07533 -1.07535,0.0307 a 0.2482558,0.2482558 0 0 1 -0.25523,-0.24106 l -0.0142,-0.49631 a 0.2482558,0.2482558 0 0 1 0.24106,-0.25524 l 1.07535,-0.0307 -0.0307,-1.07534 a 0.2482558,0.2482558 0 0 1 0.24107,-0.25524 l 0.49631,-0.0142 a 0.2482558,0.2482558 0 0 1 0.25524,0.24107 l 0.0307,1.07534 1.07535,-0.0307 a 0.2482558,0.2482558 0 0 1 0.25524,0.24108 z m 4.51166,1.44411 a 0.8275193,0.8275193 0 1 1 0.80356,-0.8508 0.8275193,0.8275193 0 0 1 -0.80356,0.8508 z m 1.2668,-2.02302 a 0.8275193,0.8275193 0 1 1 0.80358,-0.8508 0.8275193,0.8275193 0 0 1 -0.80358,0.8508 z"
       inkscape:connector-curvature="0"
       style="stroke-width:0.02068798" />
    <path
       id="path882"
       d="m 65.402389,132.54468 c -6.214589,-0.39881 -11.50165,4.55685 -12.086439,10.75628 l -1.468064,15.56314 c -0.07932,0.8409 0.897059,1.3572 1.547533,0.81885 l 1.57259,-0.95408 c 0.420265,-0.25484 0.965696,-0.14628 1.256134,0.24998 l 2.263775,3.09006 c 0.333785,0.40333 0.931145,0.45968 1.334472,0.12588 l 2.656259,-2.47722 c 0.415517,-0.38738 1.075388,-0.32514 1.410544,0.13305 l 2.146184,2.93024 c 0.333786,0.40333 0.931145,0.45968 1.334471,0.12588 l 2.801676,-2.61225 c 0.359405,-0.33495 0.915576,-0.3402 1.280712,-0.0107 l 1.366433,1.23132 c 0.538341,0.65048 1.594107,0.32528 1.673373,-0.51503 l 1.512842,-16.03784 c 0.600753,-6.36867 -4.172648,-12.00502 -10.602495,-12.41759 z m -4.671617,12.8806 c -1.041982,-0.0983 -1.8073,-1.02303 -1.709009,-2.06502 0.09829,-1.04198 1.023029,-1.8073 2.065012,-1.70901 1.041991,0.0983 1.807309,1.02303 1.709019,2.06501 -0.09829,1.042 -1.023031,1.80731 -2.065022,1.70902 z m 7.548052,0.71201 c -1.041981,-0.0983 -1.807298,-1.02303 -1.709007,-2.06503 0.09829,-1.04198 1.023029,-1.8073 2.06501,-1.70901 1.041991,0.0983 1.8073,1.02303 1.70901,2.06502 -0.09829,1.04199 -1.023022,1.80731 -2.065013,1.70902 z"
       inkscape:connector-curvature="0"
       style="opacity:0.87300002;fill:#ffffff;fill-opacity:1;stroke-width:0.05923092" />
    <path
       id="path904"
       d="m 485.26061,258.53498 h -11.66136 c -0.0356,0.95279 -0.70749,1.53908 -1.57466,1.53908 h -2.92424 c -0.89891,0 -1.58813,-0.84024 -1.57611,-1.53908 h -11.50601 c -0.42323,0 -0.76953,0.3463 -0.76953,0.76955 v 0.76953 c 0,1.69298 1.38516,3.07814 3.07815,3.07814 H 482.952 c 1.69298,0 3.07814,-1.38516 3.07814,-3.07814 v -0.76953 c 0,-0.42325 -0.34628,-0.76955 -0.76953,-0.76955 z M 482.952,240.83565 c 0,-1.26972 -1.03887,-2.3086 -2.30861,-2.3086 h -20.00794 c -1.26974,0 -2.3086,1.03888 -2.3086,2.3086 v 16.16027 H 482.952 Z m -3.07814,13.08212 H 461.405 V 241.6052 h 18.46886 z"
       inkscape:connector-curvature="0"
       style="opacity:0.30500004;stroke-width:0.048096" />
    <path
       id="path926"
       d="m 476.70467,241.67044 h -10.98911 c -0.70001,0 -1.26796,0.56794 -1.26796,1.26797 v 9.29846 c 0,0.70003 0.56795,1.26797 1.26796,1.26797 h 10.98911 c 0.70003,0 1.26797,-0.56794 1.26797,-1.26797 v -9.29846 c 0,-0.70003 -0.56794,-1.26797 -1.26797,-1.26797 z m 0,10.40795 c 0,0.0871 -0.0712,0.15848 -0.1585,0.15848 h -10.67209 c -0.0871,0 -0.15852,-0.0712 -0.15852,-0.15848 v -6.18138 h 10.98911 z"
       inkscape:connector-curvature="0"
       style="opacity:0.52899996;stroke-width:0.02641611" />
    <path
       id="path948"
       d="M 75.09841,267.35357 H 57.333448 a 0.68326759,0.68326759 0 0 0 -0.683263,0.68326 v 1.36654 a 0.68326759,0.68326759 0 0 0 0.683263,0.68326 H 75.09841 a 0.68326759,0.68326759 0 0 0 0.683263,-0.68326 v -1.36654 a 0.68326759,0.68326759 0 0 0 -0.683263,-0.68326 z m 0,10.93227 H 57.333448 a 0.68326759,0.68326759 0 0 0 -0.683263,0.68328 v 1.36653 a 0.68326759,0.68326759 0 0 0 0.683263,0.68327 H 75.09841 a 0.68326759,0.68326759 0 0 0 0.683263,-0.68327 v -1.36653 A 0.68326759,0.68326759 0 0 0 75.09841,278.28584 Z M 61.266509,264.6205 h 9.899272 a 0.51629408,0.51629408 0 0 0 0.516292,-0.51673 v -1.70004 a 0.51629408,0.51629408 0 0 0 -0.516292,-0.51631 h -9.899272 a 0.51629408,0.51629408 0 0 0 -0.516723,0.51631 v 1.70004 a 0.51672112,0.51672112 0 0 0 0.516723,0.51673 z m 9.899272,10.93227 a 0.51629408,0.51629408 0 0 0 0.516292,-0.51671 v -1.70005 a 0.51629408,0.51629408 0 0 0 -0.516292,-0.5163 h -9.899272 a 0.51629408,0.51629408 0 0 0 -0.516723,0.5163 v 1.70005 a 0.51672112,0.51672112 0 0 0 0.516723,0.51671 z"
       inkscape:connector-curvature="0"
       style="opacity:0.47099998;fill:#ffffff;fill-opacity:1;stroke-width:0.04270423" />
    <path
       id="path959"
       d="m 466.53649,248.80491 h 4.24361 a 0.1632161,0.1632161 0 0 0 0.16322,-0.16323 v -0.32642 a 0.1632161,0.1632161 0 0 0 -0.16322,-0.16322 h -4.24361 a 0.1632161,0.1632161 0 0 0 -0.16322,0.16322 v 0.32642 a 0.1632161,0.1632161 0 0 0 0.16322,0.16323 z m 4.24361,1.95859 h -4.24361 a 0.1632161,0.1632161 0 0 0 -0.16322,0.16322 v 0.32642 a 0.1632161,0.1632161 0 0 0 0.16322,0.16322 h 4.24361 a 0.1632161,0.1632161 0 0 0 0.16322,-0.16322 v -0.32642 a 0.1632161,0.1632161 0 0 0 -0.16322,-0.16322 z m 0.0324,-3.91719 h -2.67615 a 0.13077691,0.13077691 0 0 0 -0.13088,0.13089 v 0.39109 a 0.13077691,0.13077691 0 0 0 0.13088,0.13088 h 2.67615 a 0.13077691,0.13077691 0 0 0 0.13087,-0.13088 v -0.39109 a 0.13077691,0.13077691 0 0 0 -0.13087,-0.13089 z m 0,2.61146 h -2.67615 a 0.13077691,0.13077691 0 0 0 -0.13088,0.13087 v 0.39111 a 0.13077691,0.13077691 0 0 0 0.13088,0.13089 h 2.67615 a 0.13077691,0.13077691 0 0 0 0.13087,-0.13089 v -0.39111 a 0.13077691,0.13077691 0 0 0 -0.13087,-0.13087 z"
       inkscape:connector-curvature="0"
       style="opacity:0.66600001;fill:#ffffff;fill-opacity:1;stroke-width:0.010201" />
    <path
       id="path970"
       d="m 476.04939,250.8074 h -4.31806 a 0.16607957,0.16607957 0 0 0 -0.16608,0.16608 v 0.33215 a 0.16607957,0.16607957 0 0 0 0.16608,0.16609 h 4.31806 a 0.16607957,0.16607957 0 0 0 0.16609,-0.16609 v -0.33215 a 0.16607957,0.16607957 0 0 0 -0.16609,-0.16608 z m 0,-1.32864 h -4.31806 a 0.16607957,0.16607957 0 0 0 -0.16608,0.16609 v 0.33215 a 0.16607957,0.16607957 0 0 0 0.16608,0.16609 h 4.31806 a 0.16607957,0.16607957 0 0 0 0.16609,-0.16609 v -0.33215 a 0.16607957,0.16607957 0 0 0 -0.16609,-0.16609 z m 0,-1.32863 h -4.31806 a 0.16607957,0.16607957 0 0 0 -0.16608,0.16607 v 0.33216 a 0.16607957,0.16607957 0 0 0 0.16608,0.16609 h 4.31806 a 0.16607957,0.16607957 0 0 0 0.16609,-0.16609 v -0.33216 a 0.16607957,0.16607957 0 0 0 -0.16609,-0.16607 z m 0,-1.32864 h -4.31806 a 0.16607957,0.16607957 0 0 0 -0.16608,0.16608 v 0.33217 a 0.16607957,0.16607957 0 0 0 0.16608,0.16607 h 4.31806 a 0.16607957,0.16607957 0 0 0 0.16609,-0.16607 v -0.33217 a 0.16607957,0.16607957 0 0 0 -0.16609,-0.16608 z"
       inkscape:connector-curvature="0"
       style="fill:#ffffff;fill-opacity:1;stroke-width:0.01037998" />
    <path
       id="path882-0"
       d="m 501.35508,191.90324 c -6.20646,0.50988 -10.71601,6.18223 -10.39233,12.40076 l 0.81254,15.6111 c 0.0439,0.84348 1.08503,1.21219 1.65022,0.58491 l 1.417,-1.17279 c 0.3787,-0.31329 0.93413,-0.28527 1.27914,0.0645 l 2.68938,2.72769 c 0.38894,0.35047 0.98814,0.31928 1.3386,-0.0697 l 2.26744,-2.83743 c 0.35472,-0.44374 1.01662,-0.47819 1.4149,-0.0737 l 2.54978,2.58671 c 0.38893,0.35045 0.98814,0.31927 1.33858,-0.0697 l 2.39168,-2.99218 c 0.30683,-0.38368 0.85632,-0.46982 1.26551,-0.19698 l 1.53109,1.01935 c 0.62728,0.56521 1.62447,0.0898 1.58061,-0.75308 l -0.83734,-16.08727 c -0.33251,-6.38829 -5.87537,-11.26994 -12.29681,-10.74235 z m -2.7473,13.42335 c -1.04519,0.0544 -1.93694,-0.74912 -1.99134,-1.79432 -0.0544,-1.04519 0.74911,-1.93694 1.7943,-1.99134 1.0452,-0.0544 1.93695,0.74911 1.99136,1.7943 0.0544,1.04521 -0.74912,1.93696 -1.79432,1.99136 z m 7.57131,-0.39408 c -1.04519,0.0544 -1.93694,-0.74911 -1.99135,-1.79432 -0.0544,-1.04519 0.74912,-1.93695 1.79431,-1.99135 1.0452,-0.0544 1.93694,0.74912 1.99134,1.79432 0.0544,1.0452 -0.7491,1.93695 -1.7943,1.99135 z"
       inkscape:connector-curvature="0"
       style="opacity:0.54900004;fill:#ffffff;fill-opacity:1;stroke-width:0.05923092" />
    <path
       id="path847"
       d="m 448.0533,141.73407 -19.83706,1.58697 -1.11675,-13.95942 c -0.0325,-0.40592 -0.38756,-0.7084 -0.79348,-0.67593 l -1.46942,0.11756 c -0.40592,0.0325 -0.7084,0.38755 -0.67592,0.79347 l 1.2343,15.42883 c 0.0649,0.8114 0.77557,1.41677 1.58696,1.35186 l 21.30648,-1.70451 c 0.40593,-0.0325 0.70841,-0.38756 0.67593,-0.79348 L 448.84679,142.41 c -0.0325,-0.40592 -0.38755,-0.7084 -0.79349,-0.67593 z m -2.52738,-13.10716 -5.42122,0.4337 c -0.98174,0.0785 -1.37858,1.3049 -0.62874,1.94364 l 1.6068,1.36877 -3.09952,3.63907 -3.63861,-3.09956 c -0.61991,-0.52808 -1.55024,-0.45365 -2.07784,0.16623 l -2.90185,3.40652 c -0.26403,0.30995 -0.22682,0.77511 0.0831,1.03915 l 1.12179,0.95559 c 0.30995,0.26404 0.77511,0.22682 1.03915,-0.0831 l 1.94579,-2.2847 3.63861,3.09956 c 0.61992,0.52807 1.55024,0.45365 2.07784,-0.16623 l 4.05558,-4.7609 1.6068,1.36877 c 0.74985,0.63875 1.89751,0.052 1.81897,-0.92976 l -0.43366,-5.42075 c -0.0321,-0.40595 -0.3871,-0.70845 -0.79302,-0.67597 z"
       inkscape:connector-curvature="0"
       style="opacity:0.27900002;stroke-width:0.04606584" />
    <path
       id="path858"
       d="m 517.14704,297.26455 h -74.8015 v -33.79108 h 74.8015 z"
       inkscape:connector-curvature="0"
       style="opacity:0.354;stroke-width:0.09819426" />
    <rect
       style="opacity:0.058;fill:#ffffff;fill-opacity:1;stroke-width:0.24482141"
       id="rect869"
       width="62.555058"
       height="27.403273"
       x="448.46872"
       y="270.16367" />
  </g>
</svg>
